<?xml version="1.0" encoding="utf-8"?>
<!-- Generator: Adobe Illustrator 16.0.0, SVG Export Plug-In . SVG Version: 6.00 Build 0)  -->
<!DOCTYPE svg PUBLIC "-//W3C//DTD SVG 1.1//EN" "http://www.w3.org/Graphics/SVG/1.1/DTD/svg11.dtd">
<svg version="1.1" id="Layer_1" xmlns="http://www.w3.org/2000/svg" xmlns:xlink="http://www.w3.org/1999/xlink" x="0px" y="0px"
	 width="26px" height="24px" viewBox="0 0 26 24" enable-background="new 0 0 26 24" xml:space="preserve">
<g>
	<path fill="#DFDFDF" d="M25,23h-5.305v-7.747c0-2.028-0.829-3.412-2.654-3.412c-1.395,0-2.171,0.933-2.533,1.834
		c-0.134,0.322-0.114,0.773-0.114,1.225V23H9.139c0,0,0.068-13.724,0-14.971h5.254v2.349c0.311-1.027,1.989-2.494,4.672-2.494
		c3.322,0,5.935,2.154,5.935,6.791V23z M3.824,6.156H3.791C2.098,6.156,1,5.011,1,3.562c0-1.479,1.13-2.6,2.857-2.6
		c1.726,0,2.788,1.118,2.821,2.595C6.678,5.008,5.583,6.156,3.824,6.156 M6.284,23H1.605V8.029h4.679V23z"/>
</g>
</svg>
