<?xml version="1.0" encoding="utf-8"?>
<!-- Generator: Adobe Illustrator 16.0.0, SVG Export Plug-In . SVG Version: 6.00 Build 0)  -->
<!DOCTYPE svg PUBLIC "-//W3C//DTD SVG 1.1//EN" "http://www.w3.org/Graphics/SVG/1.1/DTD/svg11.dtd">
<svg version="1.1" id="Layer_1" xmlns="http://www.w3.org/2000/svg" xmlns:xlink="http://www.w3.org/1999/xlink" x="0px" y="0px"
	 width="27px" height="27px" viewBox="0 0 27 27" enable-background="new 0 0 27 27" xml:space="preserve">
<g>
	<path fill="#DFDFDF" d="M23.084,19.467l-2.817,0.039c0,0-0.604,0.12-1.401-0.428c-1.054-0.723-2.047-2.604-2.821-2.357
		c-0.786,0.249-0.761,1.94-0.761,1.94s0.006,0.362-0.173,0.554c-0.195,0.21-0.575,0.252-0.575,0.252h-1.261
		c0,0-2.782,0.167-5.232-2.384C5.37,14.301,3.01,8.78,3.01,8.78S2.874,8.419,3.022,8.244c0.166-0.197,0.619-0.21,0.619-0.21
		l3.013-0.02c0,0,0.285,0.048,0.488,0.197C7.31,8.334,7.403,8.564,7.403,8.564s0.487,1.233,1.132,2.347
		c1.26,2.176,1.846,2.652,2.274,2.418c0.623-0.339,0.436-3.075,0.436-3.075s0.011-0.993-0.314-1.435
		c-0.251-0.343-0.726-0.443-0.936-0.471c-0.17-0.023,0.109-0.416,0.47-0.593c0.542-0.266,1.5-0.281,2.631-0.269
		c0.882,0.009,1.136,0.064,1.481,0.147c1.039,0.251,0.687,1.22,0.687,3.544c0,0.744-0.135,1.791,0.402,2.138
		c0.23,0.149,0.796,0.022,2.208-2.376c0.669-1.136,1.172-2.473,1.172-2.473s0.109-0.238,0.28-0.34
		c0.174-0.104,0.409-0.072,0.409-0.072l3.172-0.02c0,0,0.953-0.113,1.106,0.317c0.162,0.451-0.355,1.506-1.651,3.233
		c-2.127,2.836-2.364,2.57-0.599,4.21c1.688,1.566,2.038,2.328,2.096,2.423C24.557,19.376,23.084,19.467,23.084,19.467 M23.625,0
		H3.375C1.511,0,0,1.511,0,3.375v20.25C0,25.489,1.511,27,3.375,27h20.25C25.489,27,27,25.489,27,23.625V3.375
		C27,1.511,25.489,0,23.625,0"/>
</g>
</svg>
