<?xml version="1.0" encoding="utf-8"?>
<!-- Generator: Adobe Illustrator 16.0.0, SVG Export Plug-In . SVG Version: 6.00 Build 0)  -->
<!DOCTYPE svg PUBLIC "-//W3C//DTD SVG 1.1//EN" "http://www.w3.org/Graphics/SVG/1.1/DTD/svg11.dtd">
<svg version="1.1" id="Layer_1" xmlns="http://www.w3.org/2000/svg" xmlns:xlink="http://www.w3.org/1999/xlink" x="0px" y="0px"
	 width="26px" height="18px" viewBox="0 0 26 18" enable-background="new 0 0 26 18" xml:space="preserve">
<g>
	<path fill="#DFDFDF" d="M10.374,12.319V5.1l6.905,3.61L10.374,12.319z M25.521,3.968c0,0-0.25-1.753-1.017-2.525
		c-0.971-1.013-2.061-1.018-2.56-1.077c-3.576-0.258-8.94-0.258-8.94-0.258h-0.011c0,0-5.364,0-8.939,0.258
		c-0.5,0.059-1.589,0.064-2.561,1.077C0.728,2.215,0.479,3.968,0.479,3.968S0.223,6.026,0.223,8.085v1.93
		c0,2.058,0.256,4.117,0.256,4.117s0.249,1.753,1.015,2.524c0.972,1.013,2.249,0.981,2.818,1.087C6.356,17.939,13,18,13,18
		s5.369-0.008,8.945-0.266c0.499-0.059,1.589-0.064,2.56-1.077c0.767-0.771,1.017-2.524,1.017-2.524s0.255-2.06,0.255-4.117v-1.93
		C25.776,6.026,25.521,3.968,25.521,3.968"/>
</g>
</svg>
